<?xml version="1.0" encoding="UTF-8" standalone="no"?>
<!-- Created with Inkscape (http://www.inkscape.org/) -->

<svg
   xmlns:dc="http://purl.org/dc/elements/1.1/"
   xmlns:cc="http://creativecommons.org/ns#"
   xmlns:rdf="http://www.w3.org/1999/02/22-rdf-syntax-ns#"
   xmlns:svg="http://www.w3.org/2000/svg"
   xmlns="http://www.w3.org/2000/svg"
   xmlns:xlink="http://www.w3.org/1999/xlink"
   xmlns:sodipodi="http://sodipodi.sourceforge.net/DTD/sodipodi-0.dtd"
   xmlns:inkscape="http://www.inkscape.org/namespaces/inkscape"
   width="600"
   height="126"
   id="svg3795"
   sodipodi:version="0.32"
   inkscape:version="0.92.2 2405546, 2018-03-11"
   sodipodi:docname="archlogo.svg"
   inkscape:output_extension="org.inkscape.output.svg.inkscape"
   version="1.0"
   style="display:inline"
   inkscape:export-filename="/mnt/hdd/archhurd/archweb/sitestatic/archnavbar/archlogo.png"
   inkscape:export-xdpi="30.48"
   inkscape:export-ydpi="30.48">
  <defs
     id="defs3797">
    <marker
       inkscape:stockid="Arrow2Lend"
       orient="auto"
       refY="0"
       refX="0"
       id="Arrow2Lend"
       style="overflow:visible">
      <path
         id="path5135"
         style="font-size:12px;fill-rule:evenodd;stroke-width:0.625;stroke-linejoin:round"
         d="M 8.7185878,4.0337352 -2.2072895,0.01601326 8.7185884,-4.0017078 c -1.7454984,2.3720609 -1.7354408,5.6174519 -6e-7,8.035443 z"
         transform="matrix(-1.1,0,0,-1.1,-1.1,0)"
         inkscape:connector-curvature="0" />
    </marker>
    <marker
       inkscape:stockid="DiamondSstart"
       orient="auto"
       refY="0"
       refX="0"
       id="DiamondSstart"
       style="overflow:visible">
      <path
         id="path5209"
         d="M 0,-7.0710768 -7.0710894,0 0,7.0710589 7.0710462,0 Z"
         style="fill-rule:evenodd;stroke:#000000;stroke-width:1.00000003pt;marker-start:none"
         transform="matrix(0.2,0,0,0.2,1.2,0)"
         inkscape:connector-curvature="0" />
    </marker>
    <marker
       inkscape:stockid="Arrow2Send"
       orient="auto"
       refY="0"
       refX="0"
       id="Arrow2Send"
       style="overflow:visible">
      <path
         id="path5147"
         style="font-size:12px;fill-rule:evenodd;stroke-width:0.625;stroke-linejoin:round"
         d="M 8.7185878,4.0337352 -2.2072895,0.01601326 8.7185884,-4.0017078 c -1.7454984,2.3720609 -1.7354408,5.6174519 -6e-7,8.035443 z"
         transform="matrix(-0.3,0,0,-0.3,0.69,0)"
         inkscape:connector-curvature="0" />
    </marker>
    <marker
       inkscape:stockid="Arrow1Lend"
       orient="auto"
       refY="0"
       refX="0"
       id="Arrow1Lend"
       style="overflow:visible">
      <path
         id="path5117"
         d="M 0,0 5,-5 -12.5,0 5,5 Z"
         style="fill-rule:evenodd;stroke:#000000;stroke-width:1.00000003pt;marker-start:none"
         transform="matrix(-0.8,0,0,-0.8,-10,0)"
         inkscape:connector-curvature="0" />
    </marker>
    <linearGradient
       gradientUnits="userSpaceOnUse"
       id="path1082_2_"
       y2="129.3468"
       x2="112.49853"
       y1="6.1372099"
       x1="112.49854"
       gradientTransform="translate(287,-83)">
      <stop
         id="stop193"
         offset="0"
         style="stop-color:#ffffff;stop-opacity:0" />
      <stop
         id="stop195"
         offset="1"
         style="stop-color:#ffffff;stop-opacity:0.27450982;" />
      <midPointStop
         id="midPointStop197"
         style="stop-color:#FFFFFF"
         offset="0" />
      <midPointStop
         id="midPointStop199"
         style="stop-color:#FFFFFF"
         offset="0.5" />
      <midPointStop
         id="midPointStop201"
         style="stop-color:#000000"
         offset="1" />
    </linearGradient>
    <linearGradient
       inkscape:collect="always"
       xlink:href="#path1082_2_"
       id="linearGradient2197"
       gradientUnits="userSpaceOnUse"
       gradientTransform="matrix(-0.22894919,0,0,0.22893635,198.41522,68.52471)"
       x1="541.33502"
       y1="104.50665"
       x2="606.91248"
       y2="303.14029" />
    <inkscape:perspective
       sodipodi:type="inkscape:persp3d"
       inkscape:vp_x="0 : 526.18109 : 1"
       inkscape:vp_y="0 : 1000 : 0"
       inkscape:vp_z="744.09448 : 526.18109 : 1"
       inkscape:persp3d-origin="372.04724 : 350.78739 : 1"
       id="perspective3803" />
  </defs>
  <sodipodi:namedview
     id="base"
     pagecolor="#ffffff"
     bordercolor="#666666"
     borderopacity="1.0"
     inkscape:pageopacity="0.0"
     inkscape:pageshadow="2"
     inkscape:zoom="0.35355339"
     inkscape:cx="354.71794"
     inkscape:cy="-282.309"
     inkscape:document-units="px"
     inkscape:current-layer="layer14"
     showgrid="false"
     inkscape:window-width="956"
     inkscape:window-height="1007"
     inkscape:window-x="956"
     inkscape:window-y="0"
     inkscape:window-maximized="0"
     showguides="true"
     inkscape:guide-bbox="true">
    <sodipodi:guide
       position="321.19388,146.71627"
       orientation="1,0"
       id="guide942"
       inkscape:locked="false" />
  </sodipodi:namedview>
  <metadata
     id="metadata3800">
    <rdf:RDF>
      <cc:Work
         rdf:about="">
        <dc:format>image/svg+xml</dc:format>
        <dc:type
           rdf:resource="http://purl.org/dc/dcmitype/StillImage" />
        <dc:title></dc:title>
      </cc:Work>
    </rdf:RDF>
  </metadata>
  <g
     inkscape:groupmode="layer"
     id="layer14"
     inkscape:label="tag-a-simple-..."
     style="display:none"
     transform="translate(0,-74)">
    <text
       id="text4245"
       y="168.06757"
       x="385.10443"
       style="font-style:normal;font-weight:normal;font-size:7.97711945px;line-height:0%;font-family:'Liberation Sans';text-align:end;text-anchor:end;display:inline;fill:#4d4d4d;fill-opacity:1;stroke:none;stroke-width:0.66475999px;stroke-linecap:butt;stroke-linejoin:miter;stroke-opacity:1"
       xml:space="preserve"><tspan
         y="168.06757"
         x="385.10443"
         id="tspan4247"
         sodipodi:role="line"
         style="font-size:13.29519844px;line-height:1.25;stroke-width:0.66475999px">A simple, lightweight hurd distribution.</tspan></text>
  </g>
  <g
     inkscape:groupmode="layer"
     id="layer12"
     inkscape:label="arch"
     style="display:inline"
     transform="translate(0,-74)">
    <g
       style="display:inline;fill:#838383;fill-opacity:1;stroke:none"
       transform="matrix(0.63977748,0,0,0.63977748,-53.035926,-87.410612)"
       id="g4168">
      <path
         style="fill:#838383;fill-opacity:1;fill-rule:evenodd;stroke:none;stroke-width:0.5;stroke-miterlimit:4;stroke-dasharray:none;stroke-opacity:1"
         d="m 339.96875,309.09375 c -14.47141,-0.0239 -26.4812,2.94367 -31.125,4.5625 l -4.78125,25.8125 c -0.0116,0.0951 23.79543,-6.34855 34.28125,-5.96875 17.36158,0.62381 18.95948,6.63541 18.65625,14.75 0.29595,0.47462 -4.47933,-7.33192 -19.5,-7.59375 -18.94961,-0.32687 -45.69284,6.70947 -45.65625,35.3125 -0.51086,32.17412 24.03361,41.63882 40.75,41.8125 15.02821,-0.27364 22.0777,-5.69136 25.9375,-8.59375 5.07124,-5.30236 10.87308,-10.63447 16.40625,-17.03125 -5.23567,9.51278 -9.77472,16.0898 -14.5,21.125 v 4.25 l 22.84375,-3.84375 0.15625,-62.09375 c -0.23141,-8.78839 5.04123,-42.41827 -43.46875,-42.5 z m -3.28125,54.0625 c 9.46889,0.12995 20.32788,4.79708 20.34375,16.03125 0.049,10.21821 -12.80005,15.71183 -21.15625,15.625 -8.35976,-0.0868 -19.45093,-6.56982 -19.5,-16.53125 0.16016,-8.90444 10.45953,-15.35418 20.3125,-15.125 z"
         id="path4170"
         inkscape:connector-curvature="0" />
      <path
         inkscape:export-ydpi="90"
         inkscape:export-xdpi="90"
         inkscape:export-filename="/home/thayer/linux/artwork-arch/sample-hangar2.png"
         id="path4172"
         d="m 398.50106,314.83145 -0.15505,102.82693 26.61213,-5.12724 0.0449,-58.30157 c 0.006,-8.68089 12.40554,-18.82451 27.9627,-18.66287 3.30202,-5.97408 9.5087,-21.24219 11.02088,-24.71514 -34.75649,-0.0833 -35.19897,9.98993 -41.24398,14.94517 -0.0631,-9.45285 -0.0213,-15.12741 -0.0213,-15.12741 z"
         style="fill:#838383;fill-opacity:1;fill-rule:evenodd;stroke:none;stroke-width:0.5;stroke-miterlimit:4;stroke-dasharray:none;stroke-opacity:1"
         inkscape:connector-curvature="0" />
      <path
         sodipodi:nodetypes="ccccccccccc"
         inkscape:export-ydpi="90"
         inkscape:export-xdpi="90"
         inkscape:export-filename="/home/thayer/linux/artwork-arch/sample-hangar2.png"
         id="path4174"
         d="m 548.2688,328.33058 c -0.25696,-0.12068 -13.87938,-15.93419 -41.26638,-16.0589 -25.65249,-0.42638 -54.42578,9.51895 -54.88631,52.5328 0.22457,37.81852 27.6402,52.59809 55.0314,52.88627 29.31292,0.30451 40.97654,-18.32947 41.67615,-18.79124 -3.49762,-3.0321 -16.59792,-16.0131 -16.59792,-16.0131 0,0 -8.18236,11.65102 -24.05802,11.79913 -15.87942,0.1512 -29.68245,-12.27325 -29.87805,-29.60905 -0.20349,-17.33595 12.68881,-26.72821 29.99725,-27.48687 14.98466,-0.003 23.6297,9.67334 23.6297,9.67334 z"
         style="fill:#838383;fill-opacity:1;fill-rule:evenodd;stroke:none;stroke-width:0.5;stroke-miterlimit:4;stroke-dasharray:none;stroke-opacity:1"
         inkscape:connector-curvature="0" />
      <path
         style="fill:#838383;fill-opacity:1;fill-rule:evenodd;stroke:none;stroke-width:0.5;stroke-miterlimit:4;stroke-dasharray:none;stroke-opacity:1"
         d="m 581.8125,278.84375 -25.125,5.90625 0.1875,133.9375 24.75,-4.46875 0.28125,-63.03125 c 0.0529,-6.60927 9.56127,-16.75916 25.4375,-16.4375 15.17973,0.15775 18.57236,10.11767 18.53125,11.375 l 0.4375,72.96875 24.40625,-4.3125 0.0937,-77.375 c 0.1607,-7.44539 -16.30833,-23.16954 -42.78125,-23.28125 -12.58087,0.0202 -19.54815,2.86825 -23.09375,4.96875 -6.06656,4.68565 -12.9998,9.17543 -19.8125,14.90625 6.29809,-8.09099 11.58551,-13.68516 16.75,-17.84375 z"
         id="path4176"
         inkscape:connector-curvature="0" />
    </g>
  </g>
  <g
     inkscape:groupmode="layer"
     id="layer13"
     inkscape:label="logo-arch-blue"
     style="display:inline"
     transform="translate(0,-74)">
    <path
       style="display:inline;fill:#1793d1;fill-opacity:1;fill-rule:evenodd;stroke:none;stroke-width:0.66475999;stroke-linecap:round;stroke-linejoin:round;stroke-miterlimit:10;stroke-dasharray:none;stroke-opacity:1"
       d="m 74.211365,79.368008 c -4.917141,12.055521 -7.882921,19.941256 -13.357518,31.638422 3.356612,3.558 7.476695,7.70148 14.167694,12.38115 -7.193478,-2.96007 -12.100317,-5.93192 -15.767273,-9.01581 -7.006436,14.62001 -17.983504,35.44556 -40.259525,75.47103 17.508203,-10.10779 31.080248,-16.33935 43.728741,-18.71715 -0.543129,-2.33599 -0.851923,-4.86283 -0.83095,-7.49932 l 0.02078,-0.56089 c 0.277817,-11.21704 6.112913,-19.84295 13.025139,-19.25727 6.912233,0.58568 12.285035,10.15915 12.007225,21.3762 -0.05225,2.11069 -0.290326,4.14115 -0.706307,6.02438 12.511168,2.44741 25.938089,8.66301 43.209399,18.63405 -3.40557,-6.26988 -6.44534,-11.92172 -9.3482,-17.30453 -4.57248,-3.54397 -9.34179,-8.15647 -19.07029,-13.14978 6.68681,1.73751 11.47448,3.74214 15.20638,5.98284 C 86.722464,110.42104 84.332446,103.11928 74.21137,79.368008 Z"
       id="path4179"
       inkscape:connector-curvature="0" />
    <path
       sodipodi:nodetypes="ccc"
       id="path4181"
       d="M 105.31572,145.02324 C 81.3719,112.52457 75.821972,86.331628 74.416197,80.078231 87.18853,109.5381 87.101293,109.89937 105.31572,145.02324 Z"
       style="display:inline;fill:#ffffff;fill-opacity:0.16568047;fill-rule:evenodd;stroke:none;stroke-width:23.99783325;stroke-linecap:butt;stroke-linejoin:round;stroke-miterlimit:10;stroke-opacity:1"
       inkscape:connector-curvature="0" />
    <path
       style="display:inline;fill:url(#linearGradient2197);fill-opacity:1;fill-rule:evenodd;stroke:none;stroke-width:0.47474954;stroke-linecap:round;stroke-linejoin:round;stroke-miterlimit:10;stroke-dasharray:none;stroke-opacity:1"
       d="m 74.419103,79.866578 c -0.609732,1.498961 -1.202153,2.957138 -1.765769,4.341713 -0.628604,1.544171 -1.233975,3.021102 -1.828087,4.466356 -0.59407,1.445268 -1.182057,2.845712 -1.765769,4.237845 -0.583739,1.392193 -1.168269,2.769883 -1.765768,4.15475 -0.597461,1.384814 -1.213527,2.773039 -1.848865,4.196298 -0.635337,1.42329 -1.296999,2.89652 -1.99428,4.40403 -0.697339,1.50753 -1.418664,3.05738 -2.202017,4.69487 -0.106322,0.22224 -0.224217,0.4812 -0.33238,0.70631 3.34591,3.54399 7.453541,7.66655 14.105373,12.31883 -7.171189,-2.9509 -12.062459,-5.92139 -15.725725,-8.99503 -0.19191,0.39181 -0.363125,0.74126 -0.560892,1.14256 -0.690858,1.40188 -1.453258,2.91443 -2.22279,4.44558 -0.03201,0.0647 -0.05094,0.12205 -0.0831,0.18696 -0.195054,0.38782 -0.360354,0.72483 -0.560891,1.12178 -0.03038,0.0609 -0.07335,0.12576 -0.103866,0.18696 -3.183017,6.3846 -7.117424,14.01057 -12.173415,23.47434 14.002057,-7.89268 29.114515,-19.26779 56.546148,-9.47282 -1.376281,-2.60664 -2.634105,-5.03488 -3.822378,-7.33314 -1.188251,-2.29833 -2.298699,-4.46692 -3.323799,-6.50219 -1.025027,-2.03523 -1.980181,-3.93676 -2.866778,-5.75432 -0.88659,-1.81753 -1.699219,-3.54816 -2.472076,-5.19344 -0.772903,-1.64525 -1.497338,-3.21808 -2.181244,-4.73641 -0.683951,-1.51834 -1.332956,-2.98808 -1.952731,-4.42482 -0.619837,-1.4368 -1.206201,-2.837347 -1.786543,-4.237837 -0.580396,-1.400536 -1.158564,-2.786613 -1.724221,-4.196297 -0.189218,-0.471454 -0.392256,-0.957533 -0.581665,-1.433388 -1.560272,-3.6608 -3.155736,-7.451821 -5.006472,-11.79949 z"
       id="path4187"
       inkscape:connector-curvature="0" />
  </g>
  <g
     inkscape:groupmode="layer"
     id="layer1"
     inkscape:label="tm"
     style="display:none"
     transform="translate(0,-74)">
    <text
       id="text4183"
       y="166.89716"
       x="186.61089"
       style="font-style:normal;font-weight:normal;line-height:0%;font-family:'DejaVu Sans Mono';display:inline;fill:#87cdde;fill-opacity:1;stroke:none;stroke-width:1px;stroke-linecap:butt;stroke-linejoin:miter;stroke-opacity:1"
       xml:space="preserve"><tspan
         y="166.89716"
         x="186.61089"
         id="tspan4185"
         sodipodi:role="line"
         style="font-size:7.21688414px;line-height:1.25">TM</tspan></text>
  </g>
  <g
     inkscape:groupmode="layer"
     id="layer2"
     inkscape:label="logo-arch-cut"
     style="display:inline"
     transform="translate(0,-74)">
    <path
       style="display:inline;opacity:1;fill:none;fill-opacity:1;fill-rule:evenodd;stroke:#000000;stroke-width:1.32951999;stroke-linecap:round;stroke-linejoin:miter;stroke-miterlimit:6.0999999;stroke-dasharray:none;stroke-opacity:1"
       d="m 102.93182,159.57686 c 5.8658,1.63611 10.18607,3.49564 13.61502,5.55445 C 90.400763,116.45182 85.541361,105.16633 77.736307,86.711943"
       id="path5109"
       inkscape:connector-curvature="0" />
    <path
       style="display:inline;opacity:1;fill:none;fill-opacity:1;fill-rule:evenodd;stroke:#000000;stroke-width:1.32951999;stroke-linecap:round;stroke-linejoin:miter;stroke-miterlimit:6.0999999;stroke-dasharray:none;stroke-opacity:1"
       d="m 125.92426,182.5218 c -1.92328,-3.56055 -3.74383,-6.94203 -5.51349,-10.22354 -4.33734,-3.36178 -8.8518,-7.68492 -17.60815,-12.38256"
       id="path5102"
       inkscape:connector-curvature="0" />
    <path
       style="display:inline;opacity:1;fill:none;fill-opacity:1;fill-rule:evenodd;stroke:#000000;stroke-width:1.32951999;stroke-linecap:round;stroke-linejoin:miter;stroke-miterlimit:6.0999999;stroke-dasharray:none;stroke-opacity:1"
       d="m 90.026509,171.73947 c 9.83416,2.43083 20.378411,7.1189 32.991111,14.05822"
       id="path5095"
       inkscape:connector-curvature="0" />
    <path
       style="display:inline;opacity:1;fill:none;fill-opacity:1;fill-rule:evenodd;stroke:#000000;stroke-width:1.32951999;stroke-linecap:round;stroke-linejoin:miter;stroke-miterlimit:6.0999999;stroke-dasharray:none;stroke-opacity:1"
       d="m 62.341314,166.61857 c -0.09883,-1.05447 -0.147324,-2.13385 -0.138589,-3.23226 l 0.02078,-0.56088 c 0.277816,-11.21705 6.112913,-19.84296 13.025137,-19.25727 6.912234,0.58564 12.285037,10.15914 12.007227,21.37618 -5.31e-4,0.0215 -0.0014,0.0431 -0.0014,0.0646"
       id="path5088"
       inkscape:connector-curvature="0" />
    <path
       style="display:inline;opacity:1;fill:none;fill-opacity:1;fill-rule:evenodd;stroke:#000000;stroke-width:1.32951999;stroke-linecap:round;stroke-linejoin:miter;stroke-miterlimit:6.0999999;stroke-dasharray:none;stroke-opacity:1"
       d="M 23.607126,187.15354 C 36.98102,179.65418 48.039767,174.58908 58.283705,171.94705"
       id="path5081"
       inkscape:connector-curvature="0" />
    <path
       style="display:inline;opacity:1;fill:none;fill-opacity:1;fill-rule:evenodd;stroke:#000000;stroke-width:1.32951999;stroke-linecap:round;stroke-linejoin:miter;stroke-miterlimit:6.0999999;stroke-dasharray:none;stroke-opacity:1"
       d="m 74.640521,122.86014 c -6.81856,-2.86513 -11.527773,-5.7443 -15.076062,-8.72839 -6.735628,14.05492 -17.140877,33.84494 -37.72671,70.91514"
       id="path5074"
       inkscape:connector-curvature="0" />
    <path
       style="display:inline;opacity:1;fill:none;fill-opacity:1;fill-rule:evenodd;stroke:#000000;stroke-width:1.32951999;stroke-linecap:butt;stroke-linejoin:miter;stroke-miterlimit:6.0999999;stroke-dasharray:none;stroke-opacity:1;marker-mid:none;marker-end:none"
       d="m 71.613057,86.313606 c -3.379869,8.387197 -6.135804,15.237074 -10.44902,24.452804 3.24958,3.44455 7.214713,7.43783 13.535401,11.93512"
       id="path5036"
       inkscape:connector-curvature="0" />
  </g>
  <g
     inkscape:groupmode="layer"
     id="layer3"
     inkscape:label="logo-arrows"
     style="display:inline"
     transform="translate(0,-74)">
    <path
       style="fill:none;fill-rule:evenodd;stroke:#000000;stroke-width:1.32951999;stroke-linecap:round;stroke-linejoin:round;stroke-miterlimit:6.0999999;stroke-dasharray:none;stroke-opacity:1"
       d="m 82.892665,160.41503 3.930466,3.93047 3.799449,-3.79945"
       id="path10151"
       inkscape:connector-curvature="0" />
    <path
       style="fill:none;fill-rule:evenodd;stroke:#000000;stroke-width:1.32951999;stroke-linecap:round;stroke-linejoin:round;stroke-miterlimit:6.0999999;stroke-dasharray:none;stroke-opacity:1"
       d="m 116.92635,186.75084 5.24842,-1.83062 -1.76959,-5.07347"
       id="path10154"
       inkscape:connector-curvature="0" />
    <path
       style="fill:none;fill-rule:evenodd;stroke:#000000;stroke-width:1.32951999;stroke-linecap:round;stroke-linejoin:round;stroke-miterlimit:6.0999999;stroke-dasharray:none;stroke-opacity:1"
       d="m 108.86546,157.88067 -5.26193,1.79145 1.73173,5.08652"
       id="path10156"
       inkscape:connector-curvature="0" />
    <path
       style="fill:none;fill-rule:evenodd;stroke:#000000;stroke-width:1.32951999;stroke-linecap:round;stroke-linejoin:round;stroke-miterlimit:6.0999999;stroke-dasharray:none;stroke-opacity:1"
       d="m 55.837682,177.12173 2.162729,-5.12052 -4.949835,-2.09064"
       id="path10160"
       inkscape:connector-curvature="0" />
    <path
       style="fill:none;fill-rule:evenodd;stroke:#000000;stroke-width:1.32951999;stroke-linecap:round;stroke-linejoin:round;stroke-miterlimit:6.0999999;stroke-dasharray:none;stroke-opacity:1"
       d="m 20.155514,179.9672 1.633102,5.3132 5.136095,-1.57867"
       id="path10162"
       inkscape:connector-curvature="0" />
    <path
       style="fill:none;fill-rule:evenodd;stroke:#000000;stroke-width:1.32951999;stroke-linecap:round;stroke-linejoin:round;stroke-miterlimit:6.0999999;stroke-dasharray:none;stroke-opacity:1"
       d="m 74.093802,91.680665 -2.191427,-5.108301 -4.938021,2.118378"
       id="path10164"
       inkscape:connector-curvature="0" />
  </g>
  <g
     inkscape:groupmode="layer"
     id="layer9"
     inkscape:label="hurd-logo"
     style="display:none"
     transform="translate(0,-74)">
    <g
       style="display:inline"
       transform="matrix(0.4064413,0,0,-0.4064413,521.00678,119.39138)"
       id="g4125">
      <g
         id="g4127"
         style="fill:none;stroke:#000000;stroke-width:3;stroke-linecap:round">
        <path
           d="M 40,80 C 26.666667,80 20,75 20,65 v -5"
           id="path4129"
           inkscape:connector-curvature="0" />
        <path
           d="m 15,65 5,-5 5,5"
           id="path4131"
           inkscape:connector-curvature="0" />
        <path
           d="M 50,70 C 50,56.666667 54.166667,50 62.5,50 H 70"
           id="path4133"
           inkscape:connector-curvature="0" />
        <path
           d="m 65,45 5,5 -5,5"
           id="path4135"
           inkscape:connector-curvature="0" />
        <path
           d="m 60,20 c 26.666667,0 40,10 40,30 0,20 -11.666667,30 -35,30 h -5"
           id="path4137"
           inkscape:connector-curvature="0" />
        <path
           d="m 65,75 -5,5 5,5"
           id="path4139"
           inkscape:connector-curvature="0" />
        <path
           d="M 80,40 C 80,13.333333 70,0 50,0 30,0 20,11.666667 20,35 v 5"
           id="path4141"
           inkscape:connector-curvature="0" />
        <path
           d="m 15,35 5,5 5,-5"
           id="path4143"
           inkscape:connector-curvature="0" />
      </g>
      <g
         id="g4145"
         style="fill:#ffffff;stroke:#000000;stroke-width:3">
        <rect
           x="10"
           y="40"
           width="20"
           height="20"
           id="rect4147" />
        <rect
           x="40"
           y="70"
           width="20"
           height="20"
           id="rect4149" />
        <rect
           x="70"
           y="40"
           width="20"
           height="20"
           id="rect4151" />
        <rect
           x="40"
           y="10"
           width="20"
           height="20"
           id="rect4153" />
      </g>
    </g>
  </g>
  <g
     inkscape:groupmode="layer"
     id="layer11"
     inkscape:label="cable-behind-letters"
     style="display:none"
     transform="translate(0,-74)">
    <path
       style="fill:none;fill-rule:evenodd;stroke:#000000;stroke-width:1px;stroke-linecap:butt;stroke-linejoin:miter;stroke-opacity:1"
       d="m 487.77155,100.90469 c 0,0 -1.875,1.42857 4.19643,10.71429 0,0 13.03885,9.7803 -6.40659,17.60899"
       id="path4161"
       inkscape:connector-curvature="0" />
    <path
       style="fill:none;fill-rule:evenodd;stroke:#000000;stroke-width:1px;stroke-linecap:butt;stroke-linejoin:miter;stroke-opacity:1"
       d="m 454.9727,120.7995 c 0,0 -0.25253,-3.15673 -32.70368,10.35406 0,0 -43.32933,7.84899 -109.51462,3.33376 -68.04398,-4.64203 -69.40866,14.09138 -77.48988,33.78935 -8.08122,19.69798 -43.94163,13.13198 -43.94163,13.13198"
       id="path4165"
       sodipodi:nodetypes="ccssc"
       inkscape:connector-curvature="0" />
  </g>
  <g
     inkscape:groupmode="layer"
     id="layer6"
     inkscape:label="hurd"
     style="display:inline"
     transform="translate(0,-74)">
    <path
       style="display:inline;fill:#1793d1;fill-opacity:1;fill-rule:evenodd;stroke:none;stroke-width:0.57338643;stroke-miterlimit:4;stroke-dasharray:none;stroke-opacity:1"
       d="m 384.13539,91.407063 -7.23901,1.791831 0.21503,85.828776 7.38233,-1.25426 -0.1075,-22.32626 0.14335,-18.06168 c -0.0155,-6.13666 9.11924,-15.73466 22.29042,-15.69643 13.17355,0.0408 16.16431,11.12173 16.09066,12.43531 l 0.0357,45.01083 6.3431,-1.39763 -0.21502,-45.54837 c 0.10077,-3.2356 -2.96769,-17.63542 -21.60949,-17.73915 -19.04769,-0.33143 -23.12158,14.39247 -23.18631,14.0838 l -0.0359,-12.90118 z"
       id="path4090"
       inkscape:connector-curvature="0" />
    <path
       style="display:inline;fill:#1793d1;fill-opacity:1;fill-rule:evenodd;stroke:none;stroke-width:0.57338643;stroke-miterlimit:4;stroke-dasharray:none;stroke-opacity:1"
       d="m 488.01881,178.59101 -7.25112,1.47935 -0.0341,-12.9498 c -10e-4,-0.5564 -3.9837,14.46682 -23.18113,14.13272 -18.64177,-0.10373 -21.69147,-14.53565 -21.59053,-17.77124 l -0.22998,-45.53903 7.70389,-1.55549 0.11886,44.98138 c 0.003,1.22831 1.47444,12.59726 14.64799,12.63781 13.17114,0.0384 22.39859,-7.93129 22.46396,-19.93256 l -0.0938,-35.48985 7.17055,-1.82989 z"
       id="path4095"
       inkscape:export-filename="/home/thayer/linux/artwork-arch/sample-hangar2.png"
       inkscape:export-xdpi="90"
       inkscape:export-ydpi="90"
       inkscape:connector-curvature="0" />
    <path
       style="display:inline;fill:#1793d1;fill-opacity:1;fill-rule:evenodd;stroke:none;stroke-width:0.57338643;stroke-miterlimit:4;stroke-dasharray:none;stroke-opacity:1"
       d="m 523.43245,114.84423 c -17.68898,0.57692 -21.4289,14.65842 -21.43032,14.11964 l -0.0357,-12.93702 -7.27483,1.4693 0.28669,61.85403 7.38234,-1.93515 -0.10749,-39.63534 c -0.0155,-6.06698 8.89443,-15.51942 21.82453,-15.69646 l 6.30723,-6.80895 c -1.58334,-0.27887 -3.30491,-0.41952 -5.19631,-0.43005 -0.59997,-0.0103 -1.18537,-0.0186 -1.756,0 z"
       id="path4110"
       inkscape:connector-curvature="0" />
    <g
       id="g4120"
       transform="matrix(1.1467729,0,0,1.1467729,-104.13899,-352.32237)">
      <ellipse
         transform="matrix(0.9553287,0,0,0.9553287,26.071086,18.371316)"
         id="path4115"
         style="opacity:1;fill:none;fill-opacity:1;fill-rule:evenodd;stroke:#1793d1;stroke-width:5.75718069;stroke-linecap:round;stroke-linejoin:round;stroke-miterlimit:10;stroke-dasharray:none;stroke-dashoffset:0;stroke-opacity:1"
         cx="575.625"
         cy="438.25504"
         rx="25.982143"
         ry="26.964285" />
      <path
         inkscape:export-ydpi="90"
         inkscape:export-xdpi="90"
         inkscape:export-filename="/home/thayer/linux/artwork-arch/sample-hangar2.png"
         id="path4117"
         d="m 597.40357,391.23606 6.32229,-1.58232 0.29915,75.33328 -6.42342,1.09377 z"
         style="display:inline;fill:#1793d1;fill-opacity:1;fill-rule:evenodd;stroke:none;stroke-width:0.5;stroke-miterlimit:4;stroke-dasharray:none;stroke-opacity:1"
         inkscape:connector-curvature="0" />
    </g>
  </g>
  <g
     inkscape:groupmode="layer"
     id="layer10"
     inkscape:label="cable-above-letters"
     style="display:none"
     transform="translate(0,-74)">
    <path
       style="fill:none;fill-rule:evenodd;stroke:#000000;stroke-width:1px;stroke-linecap:butt;stroke-linejoin:miter;stroke-opacity:1"
       d="m 525.16602,98.547212 c 0,0 -35.98215,-6.875 -37.67858,3.214278"
       id="path4158"
       inkscape:connector-curvature="0" />
    <path
       style="fill:none;fill-rule:evenodd;stroke:#000000;stroke-width:1px;stroke-linecap:butt;stroke-linejoin:miter;stroke-opacity:1"
       d="m 485.90863,129.00699 c 0,0 -13.25826,7.44988 -31.31473,-8.46003"
       id="path4163"
       inkscape:connector-curvature="0" />
  </g>
  <g
     inkscape:groupmode="layer"
     id="layer4"
     inkscape:label="logo-boxes"
     style="display:inline"
     transform="translate(0,-74)">
    <rect
       style="opacity:1;fill:#ffffff;fill-opacity:1;fill-rule:evenodd;stroke:#000000;stroke-width:1.32951975;stroke-linecap:butt;stroke-linejoin:miter;stroke-miterlimit:6.0999999;stroke-dasharray:none;stroke-dashoffset:0;stroke-opacity:1"
       id="rect4248"
       width="9.0217371"
       height="9.0217371"
       x="123.05698"
       y="70.012001"
       transform="rotate(27.349876)"
       ry="0"
       rx="0" />
    <rect
       style="opacity:1;fill:#ffffff;fill-opacity:1;fill-rule:evenodd;stroke:#000000;stroke-width:1.32951987;stroke-linecap:butt;stroke-linejoin:miter;stroke-miterlimit:6.0999999;stroke-dasharray:none;stroke-dashoffset:0;stroke-opacity:1"
       id="rect5020"
       width="9.0217381"
       height="9.0217381"
       x="142.61772"
       y="109.16473"
       transform="rotate(20.175453)"
       ry="0"
       rx="0" />
    <rect
       style="opacity:1;fill:#ffffff;fill-opacity:1;fill-rule:evenodd;stroke:#000000;stroke-width:1.32951999;stroke-linecap:butt;stroke-linejoin:miter;stroke-miterlimit:6.0999999;stroke-dasharray:none;stroke-dashoffset:0;stroke-opacity:1"
       id="rect5022"
       width="9.0217381"
       height="9.0217381"
       x="96.088097"
       y="42.656971"
       transform="rotate(22.565522)"
       ry="0"
       rx="0" />
    <rect
       style="opacity:1;fill:#ffffff;fill-opacity:1;fill-rule:evenodd;stroke:#000000;stroke-width:1.32951999;stroke-linecap:butt;stroke-linejoin:miter;stroke-miterlimit:6.0999999;stroke-dasharray:none;stroke-dashoffset:0;stroke-opacity:1"
       id="rect5024"
       width="9.0217371"
       height="9.0217371"
       x="109.62146"
       y="149.42459"
       transform="rotate(30.505947)"
       ry="0"
       rx="0" />
    <rect
       style="opacity:1;fill:#ffffff;fill-opacity:1;fill-rule:evenodd;stroke:#000000;stroke-width:1.32951999;stroke-linecap:butt;stroke-linejoin:miter;stroke-miterlimit:6.0999999;stroke-dasharray:none;stroke-dashoffset:0;stroke-opacity:1"
       id="rect5026"
       width="9.0217381"
       height="9.0217381"
       x="55.506924"
       y="-223.08432"
       transform="rotate(130.34275)"
       ry="0"
       rx="0" />
    <rect
       style="opacity:1;fill:#ffffff;fill-opacity:1;fill-rule:evenodd;stroke:#000000;stroke-width:1.32951999;stroke-linecap:butt;stroke-linejoin:miter;stroke-miterlimit:6.0999999;stroke-dasharray:none;stroke-dashoffset:0;stroke-opacity:1"
       id="rect5028"
       width="9.0217361"
       height="9.0217361"
       x="177.10855"
       y="-24.775015"
       transform="rotate(76.225106)"
       ry="0"
       rx="0" />
    <rect
       style="opacity:1;fill:#ffffff;fill-opacity:1;fill-rule:evenodd;stroke:#000000;stroke-width:1.32951999;stroke-linecap:butt;stroke-linejoin:miter;stroke-miterlimit:6.0999999;stroke-dasharray:none;stroke-dashoffset:0;stroke-opacity:1"
       id="rect5030"
       width="9.0217352"
       height="9.0217352"
       x="142.62817"
       y="-125.03406"
       transform="rotate(102.77435)"
       ry="0"
       rx="0" />
  </g>
</svg>
